<svg xmlns="http://www.w3.org/2000/svg" width="1000" height="1000" viewBox="0 0 1000 1000" preserveAspectRatio="none">
  <g transform="translate(27 0) scale(.946 1)">
  <path fill="#fff" d="M53 43C115 23 177 50 243 30C316 8 383 47 458 26C539 4 609 42 692 23C778 4 867 25 952 48C978 97 962 158 978 219C993 281 966 344 981 407C996 471 968 533 980 597C993 662 967 723 979 788C990 848 974 900 947 930C889 948 834 929 776 942C717 956 662 929 603 942C544 956 489 929 430 942C370 956 315 929 256 943C193 957 132 932 49 940C23 883 41 822 25 760C9 697 36 635 20 572C5 508 34 446 19 382C4 318 34 257 21 194C9 128 18 71 53 43Z"/>
  <path fill="#fff" d="M154 930C173 920 203 923 216 941C225 956 220 977 209 990C198 1003 182 997 177 981C172 965 177 949 163 940C153 935 149 933 154 930ZM446 930C467 919 498 923 511 942C520 959 512 983 499 994C486 1005 472 993 470 977C468 958 468 947 453 940C444 936 441 933 446 930ZM864 929C884 919 915 923 928 941C937 957 930 980 918 991C906 1003 891 994 888 978C885 960 887 947 872 940C862 935 859 932 864 929Z"/>
  <path fill="#fff" d="M27 416C10 406 1 388 10 374C20 361 35 371 37 388C39 402 40 415 27 416ZM969 276C985 264 998 274 998 291C998 308 986 318 974 310C963 303 959 284 969 276Z"/>
  <circle cx="16" cy="492" r="9" fill="#fff"/><circle cx="985" cy="350" r="8" fill="#fff"/><ellipse cx="807" cy="16" rx="18" ry="9" fill="#fff"/>
  </g>
  <path fill="#fff" d="M61 433C38 420 22 393 30 369C38 347 54 359 59 379C64 400 76 416 86 425L61 433ZM941 302C963 286 980 299 974 322C969 341 951 350 933 345L941 302Z"/>
  <circle cx="22" cy="492" r="11" fill="#fff"/><ellipse cx="982" cy="355" rx="14" ry="9" fill="#fff"/>
</svg>
